<?xml version="1.0" standalone="no"?>
<!DOCTYPE svg PUBLIC "-//W3C//DTD SVG 20010904//EN"
 "http://www.w3.org/TR/2001/REC-SVG-20010904/DTD/svg10.dtd">
<svg version="1.0" xmlns="http://www.w3.org/2000/svg"
 width="700.000000pt" height="700.000000pt" viewBox="0 0 700.000000 700.000000"
 preserveAspectRatio="xMidYMid meet">
<metadata>
Created by potrace 1.11, written by Peter Selinger 2001-2013
</metadata>
<g transform="translate(0.000000,700.000000) scale(0.100000,-0.100000)"
fill="#000000" stroke="none">
<path d="M5328 6545 c-2 -1 -52 -5 -113 -8 -60 -4 -119 -8 -130 -10 -11 -3
-42 -8 -70 -11 -91 -13 -109 -17 -233 -47 -459 -112 -1025 -375 -1473 -685
-42 -29 -96 -66 -120 -83 -64 -43 -81 -65 -86 -115 -7 -55 12 -89 63 -113 30
-15 41 -15 82 -4 26 6 76 29 112 50 210 124 455 214 647 239 109 14 353 7 423
-11 199 -53 328 -176 369 -353 13 -55 17 -232 7 -299 -3 -22 -8 -62 -11 -90
-7 -62 -35 -227 -40 -235 -2 -4 -7 -22 -10 -41 -23 -138 -141 -478 -231 -666
-117 -242 -303 -542 -438 -707 -19 -23 -58 -70 -87 -106 -115 -140 -346 -371
-499 -500 -36 -30 -67 -57 -70 -61 -15 -17 -222 -167 -309 -225 -180 -117
-471 -253 -601 -279 -14 -3 -47 -10 -75 -16 -77 -16 -152 -23 -245 -23 -169 0
-275 26 -376 90 -70 44 -89 61 -133 119 -86 114 -123 227 -136 419 -6 88 -19
117 -66 142 -69 35 -144 -15 -216 -145 -93 -165 -144 -381 -159 -669 -2 -47
-6 -87 -8 -90 -5 -5 -52 94 -75 158 -7 19 -17 44 -22 55 -11 27 -36 126 -53
217 -41 215 -37 543 10 773 3 11 7 38 10 60 3 22 17 85 31 140 14 55 26 107
28 116 6 28 57 202 65 224 5 11 20 54 33 95 27 81 103 277 136 350 11 25 20
47 20 50 0 10 180 367 221 438 62 107 53 175 -25 208 -51 21 -87 8 -204 -70
-288 -191 -592 -587 -856 -1114 -309 -617 -403 -931 -410 -1372 -3 -236 6
-334 51 -539 118 -531 445 -962 889 -1170 121 -57 120 -57 205 -85 89 -29 143
-43 190 -51 19 -3 42 -8 50 -10 8 -2 38 -7 65 -10 28 -3 70 -8 95 -12 84 -12
395 -4 478 12 11 2 43 6 73 10 130 16 459 98 544 135 11 4 58 22 105 39 359
128 851 394 1230 664 92 66 323 244 355 273 11 11 36 32 55 48 249 203 594
571 809 861 44 61 85 115 89 121 25 29 168 254 229 359 119 204 183 330 302
599 136 303 296 860 337 1166 4 28 10 48 15 43 29 -30 105 -272 129 -408 32
-187 32 -459 0 -670 -5 -33 -11 -78 -15 -100 -3 -22 -17 -92 -31 -155 -23
-102 -34 -147 -76 -290 -13 -48 -57 -180 -68 -205 -4 -11 -34 -85 -65 -165
-32 -80 -100 -229 -152 -332 -112 -224 -117 -247 -61 -299 25 -22 42 -29 74
-29 38 0 50 7 130 80 49 43 94 85 99 92 6 7 40 47 76 88 255 295 479 712 618
1157 23 72 43 140 45 150 2 10 12 47 21 83 9 36 19 76 22 90 2 14 10 52 18 85
7 33 16 80 19 105 3 25 8 54 10 65 5 26 14 94 23 180 15 145 6 605 -12 658 -3
7 -6 30 -9 52 -12 103 -83 373 -121 460 -94 216 -158 327 -263 463 -147 191
-328 344 -517 437 -96 48 -228 98 -290 111 -92 18 -123 25 -143 29 -44 8 -298
25 -304 20z"/>
<path d="M3728 5405 c-2 -2 -23 -5 -48 -8 -187 -23 -455 -139 -685 -296 -27
-19 -52 -37 -55 -40 -3 -3 -34 -30 -70 -60 -175 -146 -395 -397 -510 -581 -82
-131 -158 -305 -186 -425 -11 -48 -15 -83 -18 -165 -7 -170 33 -291 126 -382
63 -62 159 -104 251 -110 21 -1 41 -6 43 -10 3 -4 1 -8 -4 -8 -4 0 -18 -9 -30
-20 -37 -35 -121 -72 -187 -83 -111 -19 -206 16 -260 95 -48 71 -59 122 -60
291 -2 179 -11 204 -77 221 -70 18 -123 -16 -148 -96 -8 -24 -17 -47 -21 -53
-11 -16 -57 -184 -70 -255 -15 -83 -18 -281 -6 -340 5 -25 10 -52 11 -60 13
-92 95 -248 171 -325 174 -178 375 -211 650 -108 420 157 798 562 1034 1106
43 101 87 228 97 283 22 123 23 224 2 299 -6 22 -12 42 -13 45 -9 45 -90 146
-157 197 -22 17 -127 59 -167 68 l-34 7 64 37 c67 38 229 113 258 118 9 2 42
6 74 9 165 16 249 -138 243 -446 -3 -170 15 -210 101 -223 65 -10 123 53 185
203 65 156 87 278 83 454 -3 135 -10 184 -47 296 -76 232 -233 354 -470 364
-37 2 -69 2 -70 1z"/>
</g>
</svg>
